<svg width="371" height="63" viewBox="0 0 371 63" fill="none" xmlns="http://www.w3.org/2000/svg">
<path d="M28.6304 47.3301C25.4224 48.9854 21.9214 49.813 18.1274 49.813C13.0737 49.813 9.16992 48.3335 6.41602 45.3745C3.66211 42.4155 2.28516 38.2114 2.28516 32.7622C2.28516 27.3276 3.68408 23.1235 6.48193 20.1499C9.29443 17.1616 13.2568 15.6675 18.3691 15.6675C21.2695 15.6675 24.6753 16.1436 28.5864 17.0957V21.4243C24.1333 19.8862 20.6982 19.1172 18.2812 19.1172C14.751 19.1172 12.019 20.311 10.0854 22.6987C8.15186 25.0864 7.18506 28.4556 7.18506 32.8062C7.18506 36.9663 8.21777 40.2402 10.2832 42.6279C12.3486 45.0156 15.1758 46.2095 18.7646 46.2095C21.8262 46.2095 25.1147 45.2646 28.6304 43.375V47.3301Z" fill="white"/>
<path d="M34.2642 47V21.707H37.853V32.3711H49.8843V21.707H53.4731V47H49.8843V35.0542H37.853V47H34.2642ZM62.0844 47V21.707H65.6732V47H62.0844ZM93.2884 45.7012C92.2516 46.2367 91.323 46.6354 90.5027 46.8975C89.6938 47.1481 88.8507 47.3304 87.9734 47.4443C87.0962 47.5697 86.1448 47.6323 85.1194 47.6323C80.8584 47.6323 77.7366 46.3734 75.7542 43.8555C73.7832 41.3376 72.7977 38.1759 72.7977 34.3706C72.7977 30.4855 73.823 27.3011 75.8738 24.8174C77.9246 22.3223 81.0691 21.0747 85.3074 21.0747C87.5633 21.0747 90.2122 21.445 93.2542 22.1855V25.5522C90.7021 24.675 88.9419 24.1566 87.9734 23.9971C87.0164 23.8376 86.1049 23.7578 85.2391 23.7578C82.2085 23.7578 80.0096 24.7889 78.6424 26.8511C77.2866 28.9019 76.6087 31.4198 76.6087 34.4048C76.6087 37.5151 77.3891 40.033 78.95 41.9585C80.5223 43.8726 82.7439 44.8296 85.615 44.8296C86.4126 44.8296 87.2044 44.7612 87.9905 44.6245C88.7881 44.4764 89.5799 44.2656 90.366 43.9922C91.1521 43.7074 92.1263 43.2516 93.2884 42.625V45.7012ZM97.6442 47L107.676 21.707H111.231L121.109 47H117.229L114.478 39.9932H103.762L100.977 47H97.6442ZM104.805 37.3271H113.435L109.129 26.4238L104.805 37.3271ZM145.887 46.3164C143.677 46.9544 142.059 47.3304 141.033 47.4443C140.019 47.5697 138.965 47.6323 137.872 47.6323C134.841 47.6323 132.454 47.0854 130.711 45.9917C128.979 44.8979 127.658 43.32 126.746 41.2578C125.846 39.1956 125.396 36.8942 125.396 34.3535C125.396 30.4684 126.421 27.284 128.472 24.8003C130.534 22.3166 133.668 21.0747 137.872 21.0747C140.412 21.0747 143.073 21.4564 145.853 22.2197V25.5352C143.289 24.6579 141.523 24.1452 140.555 23.9971C139.598 23.8376 138.692 23.7578 137.838 23.7578C134.796 23.7578 132.597 24.7946 131.241 26.8682C129.885 28.9303 129.207 31.4312 129.207 34.3706C129.207 36.1935 129.492 37.8968 130.062 39.4805C130.643 41.0527 131.611 42.3573 132.967 43.394C134.323 44.4308 136.146 44.9492 138.436 44.9492C139.017 44.9492 139.564 44.9207 140.076 44.8638C140.589 44.7954 141.335 44.6131 142.315 44.3169V36.0796H145.887V46.3164ZM164.615 47.6323C162.223 47.6323 160.138 47.0968 158.36 46.0259C156.594 44.9549 155.222 43.394 154.242 41.3433C153.273 39.2811 152.789 36.9512 152.789 34.3535C152.789 31.847 153.25 29.5684 154.173 27.5176C155.108 25.4554 156.48 23.866 158.292 22.7495C160.104 21.633 162.211 21.0747 164.615 21.0747C167.019 21.0747 169.127 21.633 170.938 22.7495C172.75 23.866 174.117 25.4554 175.04 27.5176C175.974 29.5684 176.441 31.847 176.441 34.3535C176.441 36.8486 175.98 39.1216 175.057 41.1724C174.146 43.2118 172.79 44.8011 170.99 45.9404C169.201 47.0684 167.076 47.6323 164.615 47.6323ZM164.615 44.9492C167.167 44.9492 169.138 43.9979 170.528 42.0952C171.93 40.1925 172.63 37.6006 172.63 34.3193C172.63 31.0495 171.924 28.4746 170.511 26.5947C169.11 24.7035 167.145 23.7578 164.615 23.7578C162.086 23.7578 160.115 24.7035 158.702 26.5947C157.301 28.4746 156.6 31.0495 156.6 34.3193C156.6 37.6006 157.295 40.1925 158.685 42.0952C160.086 43.9979 162.063 44.9492 164.615 44.9492Z" fill="white"/>
<g clip-path="url(#clip0_2191_216)">
<path d="M204.412 12.65L207.866 29.3201H200.958L204.412 12.65Z" fill="#E62025"/>
<path d="M204.412 50.35L207.866 33.6799H200.958L204.412 50.35Z" fill="#E62025"/>
<path d="M221.257 22.2028L208.547 33.5288L205.093 27.547L221.257 22.2028Z" fill="#E62025"/>
<path d="M187.698 22.2028L200.408 33.5288L203.862 27.547L187.698 22.2028Z" fill="#E62025"/>
<path d="M221.257 41.7026L208.547 30.3766L205.093 36.3585L221.257 41.7026Z" fill="#E62025"/>
<path d="M187.698 41.7026L200.408 30.3766L203.862 36.3585L187.698 41.7026Z" fill="#E62025"/>
<path d="M204.647 35.6978C206.72 35.6978 208.4 33.9255 208.4 31.7392C208.4 29.553 206.72 27.7806 204.647 27.7806C202.574 27.7806 200.894 29.553 200.894 31.7392C200.894 33.9255 202.574 35.6978 204.647 35.6978Z" fill="#E62025"/>
</g>
<path d="M232.197 48.3848V43.8145C235.859 45.5137 238.877 46.3633 241.25 46.3633C243.052 46.3633 244.502 45.8872 245.601 44.9351C246.714 43.9683 247.271 42.7158 247.271 41.1777C247.271 39.9033 246.904 38.8193 246.172 37.9258C245.454 37.0322 244.121 36.0361 242.173 34.9375L239.932 33.6411C237.163 32.0591 235.208 30.5723 234.065 29.1807C232.937 27.7744 232.373 26.1484 232.373 24.3027C232.373 21.7832 233.281 19.7178 235.098 18.1064C236.914 16.4805 239.229 15.6675 242.041 15.6675C244.546 15.6675 247.19 16.085 249.973 16.9199V21.1387C246.545 19.791 243.989 19.1172 242.305 19.1172C240.708 19.1172 239.39 19.542 238.35 20.3916C237.31 21.2412 236.79 22.3105 236.79 23.5996C236.79 24.6836 237.17 25.6431 237.932 26.478C238.694 27.313 240.085 28.3091 242.107 29.4663L244.436 30.7847C247.249 32.3813 249.211 33.8901 250.325 35.311C251.438 36.7319 251.995 38.4385 251.995 40.4307C251.995 43.2578 250.955 45.5283 248.875 47.2422C246.794 48.9561 244.033 49.813 240.591 49.813C238.394 49.813 235.596 49.3369 232.197 48.3848Z" fill="white"/>
<path d="M259.242 49V26.3901H250.27V23.707H271.803V26.3901H262.831V49H259.242ZM273.101 49L283.133 23.707H286.688L296.565 49H292.686L289.935 41.9932H279.219L276.434 49H273.101ZM280.262 39.3271H288.892L284.585 28.4238L280.262 39.3271ZM300.94 49V23.707H308.596C311.433 23.707 313.393 24.3451 314.475 25.6211C315.557 26.8857 316.098 28.3384 316.098 29.979C316.098 30.936 315.905 31.8817 315.517 32.8159C315.141 33.7502 314.6 34.5819 313.894 35.311C313.188 36.0402 312.225 36.6554 311.006 37.1567L319.448 49H315.039L307.844 38.3018H304.494V49H300.94ZM304.494 35.6187H305.657C308.311 35.6187 310.1 35.0661 311.023 33.9609C311.957 32.8558 312.424 31.6424 312.424 30.3208C312.424 29.5347 312.248 28.8511 311.894 28.27C311.553 27.6776 311.011 27.2161 310.271 26.8857C309.542 26.5553 308.368 26.3901 306.75 26.3901H304.494V35.6187Z" fill="white"/>
<path d="M328.374 49L341.271 16.4805H345.842L358.542 49H353.554L350.017 39.9912H336.24L332.658 49H328.374ZM337.58 36.5635H348.676L343.139 22.5449L337.58 36.5635Z" fill="white"/>
<path d="M361.247 49V23.707H364.836V49H361.247Z" fill="white"/>
<defs>
<clipPath id="clip0_2191_216">
<rect width="39" height="39" fill="white" transform="translate(185 12)"/>
</clipPath>
</defs>
</svg>
